
<svg xmlns="http://www.w3.org/2000/svg" version="1.1" xmlns:xlink="http://www.w3.org/1999/xlink" preserveAspectRatio="none" x="0px" y="0px" width="8192px" height="8192px" viewBox="0 0 8192 8192">
<defs>
<g id="Layer0_0_FILL">
<path fill="#666666" stroke="none" d="
M 803.5 397.7
L 803.5 399.3 830.2 399.3 830.2 383.1 815.6 397.7 803.5 397.7
M 760.3 320.05
L 760.3 346.75 781.6 346.75 781.6 320.05 760.3 320.05
M 744.3 343.65
L 744.3 320.05 733.9 320.05 743.35 346.75 744.5 346.75
Q 744.356640625 345.1517578125 744.3 343.65
M 801.2 320.05
L 798.7 320.05 798.7 355.4 803.5 360.2 803.5 381.9 807.95 382.05 820.1 369.9 820.1 339.05 801.2 320.05
M 720 325.75
Q 720.5 328.7 720.5 331.35
L 720.5 346.75 727.85 346.75 719.5 322.6
Q 719.6 322.9 720 325.75
M 682.4 290.7
L 681.55 291.55 681.55 327.55 687.25 321.9 687.25 346.75 704.5 346.75 704.5 320.05 682.4 320.05 682.4 290.7
M 627.4 277.9
L 638.2 277.9 638.2 273.1 492.8 273.1 463.65 302.25 463.65 399.3 609.05 399.3 627.4 380.95 627.4 277.9
M 596.15 277.5
L 611.7 293.05 611.7 326.95 602.85 335.6 602.85 340.2 611.5 331.55 611.5 359 602.85 367.7 602.85 373.7 611.5 364.95 611.5 382.85 596.35 398 561.15 398 550.45 387.2 550.45 372.55 501.4 372.55 521.95 352 550.35 352 550.35 325.25 510.75 325.25 502.5 333.6 528.6 333.6 528.6 348.45 501.1 348.45 501.1 397.7 484 397.7 484 346.3 490.4 339.9 490.4 313.25 491.35 312.3 491.35 277.8 540.5 277.8 540.5 293.7 508.35 293.7 508.35 299.8 550.35 299.8 550.35 293.3 566 277.5 596.15 277.5
M 579.9 325.25
L 568.35 325.25 568.35 352 586.3 352 593.6 344.8 593.5 311.7 579.9 325.25
M 566 372.55
L 561.45 377.35 565.8 381.7 584.35 381.7 584.35 376.95 584.45 376.95 584.4 372.55 566 372.55
M 587.2 293.3
L 574.65 293.3 568.35 299.6 568.35 299.8 593.5 299.8 593.5 299.7 587.2 293.3
M 673.1 397.5
L 655.65 397.5 655.65 399.3 682.4 399.3 682.4 387.35 673.1 397.5
M 670.05 277.9
L 682.4 277.9 682.4 273.1 655.65 273.1 655.65 381.1 664.75 381.1 670.05 375.1 670.05 339.1 664.35 344.8 664.35 308.75 670.05 303.05 670.05 277.9
M 298.4 396.8
L 293.35 396.8 271.65 334.25 271.65 399.3 298.4 399.3 298.4 396.8
M 271.65 273.1
L 271.65 290.75 293.05 351.25
Q 292.9119140625 350.6505859375 292.6 348.35 292.2 345.4 292.1 342.75
L 292.1 276.9 298.4 276.9 298.4 273.1 271.65 273.1
M 430.45 333.35
L 425.4 338.5 425.4 379.3 434.15 370.55 434.15 396.8 419.5 396.8 419.5 399.3 446.2 399.3 446.2 349.2 430.45 333.35
M 326.1 346.75
L 326.1 320.05 308.1 320.05 308.1 346.75 326.1 346.75
M 387.45 320.05
L 387.45 326.05 378.6 334.7 378.6 346.75 406.05 346.75 411.5 352.2 416.15 347.65 416.15 320.05 387.45 320.05
M 369.35 343.9
L 369.3 320.05 344.1 320.05 344.1 346.75 366.45 346.75 369.35 343.9
M 532.05 151.35
L 532.05 178.05 568.2 178.05 568.2 151.35 532.05 151.35
M 509.95 178.05
L 509.95 151.35 483.55 151.35 482.1 149.9 482.1 154.1
Q 482.1 163.75 482.1 173.35 482.1 175.73671875 482.1 178.05
L 509.95 178.05
M 617.95 98.8
L 591.2 98.8 591.2 107.25 594.55 104.95 617.95 104.95 617.95 98.8
M 617.95 122.95
L 609.15 122.95 598.5 130.1 598.5 210.5 591.2 215.65 591.2 221.65 594.2 223.7 617.95 223.7 617.95 122.95
M 452.8 158.35
L 452.8 131.25 443.4 124.9 443.4 148.9 452.8 158.35
M 425.95 123.4
L 416.85 123.4 416.85 204.95 425.95 195.85 425.95 123.4
M 354.9 198.3
L 354.9 224.05 353.6 225 388.05 225 388.05 196.05 385.8 198.3 354.9 198.3
M 379 125.55
L 379 105.3 425.95 105.35 425.95 98.8 280.55 98.8 273.95 105.4 283.45 105.4 283.45 133.7 291.55 125.55 325.95 125.55 325.95 105.4 354.9 105.4 354.9 114.45 345.3 120.95 345.3 125.55 379 125.55
M 388.05 138
L 379 144.05 379 134.75 367.65 146.1 345.3 146.1 345.3 162 354.9 155.5 354.9 172.85 378.85 172.85 388.05 163.5 388.05 138
M 470.1 98.8
L 443.4 98.8 443.4 105.35 453.35 105.4 453.35 105.55 470.1 116.85 470.1 98.8
M 254.2 125.15
L 251.4 127.95 251.4 225 255.95 225 254.7 224.05 254.7 223.35 254.2 223.7 254.2 125.15
M 325.95 216.15
L 325.95 198.3 284.05 198.3 309.7 172.85 316.35 172.85 316.35 146.1 298.55 146.1 283.45 161.2 283.45 162.8 278.45 166.2 278.1 166.55 278.1 166.45 273.9 169.3 273.9 210.35 283.45 203.85 283.45 216.15 292.7 223 317.05 223 325.95 216.15
M 174.1 178.05
L 174.1 151.35 99.55 151.35 86.1 137.9 86.1 123.05 80.3 123.05 67.15 132.1 67.15 156.7 69.4 158.95
Q 70.551171875 159.637109375 71.75 160.4 74.15 161.65 76.9 163.4
L 105.85 163.4
Q 108.25 165 110.65 166.65 112.85 168.25 115.25 169.75 119.05 172.2 122.65 174.65 125.0134765625 176.3201171875 127.25 178.05
L 174.1 178.05
M 233.95 123.05
L 207.2 123.05 207.2 151.35 205.25 151.35 205.25 164.8 189.65 175.45 189.65 178.05 207.2 178.05 207.2 225 233.95 225 233.95 123.05
M 233.95 98.8
L 207.2 98.8 207.2 105.05 233.95 105.05 233.95 98.8
M 59.4 105.4
L 86.1 105.4 86.1 98.8 59.4 98.8 59.4 105.4 Z"/>

<path fill="#999999" stroke="none" d="
M 781.6 306.5
L 781.6 320.05 781.6 346.75 781.6 397.7 803.5 397.7 815.6 397.7 830.2 383.1 832.4 380.9
Q 832.5 380.5 832.6 380.1
L 832.6 362.7
Q 832.6 361.85 832.5 360.95 832.5 360.45 832.6 360.55
L 832.6 358.4 837.5 353.45
Q 837.5 346 837.5 337.55 837.5 329.1 837.5 320.65
L 837.5 295.1 820.4 278 820.4 277.9 776.2 277.8 776.2 311.8 781.6 306.5
M 798.7 381.8
L 798.7 355.4 798.7 320.05 798.7 293.7 813.25 293.8 820.1 300.6 820.1 339.05 820.1 369.9 807.95 382.05 803.5 381.9 798.7 381.8
M 760.3 277.8
L 744.3 277.8 744.3 320.05 744.3 343.65
Q 744.356640625 345.1517578125 744.5 346.75 744.6267578125 347.971875 744.8 349.25 745.1119140625 351.5505859375 745.25 352.15
L 743.35 346.75 733.9 320.05 718.95 277.8 704.5 277.8 704.5 320.05 704.5 346.75 704.5 397.7 720.5 397.7 720.5 346.75 720.5 331.35
Q 720.5 328.7 720 325.75 719.6 322.9 719.5 322.6
L 727.85 346.75 745.55 397.7 760.3 397.7 760.3 346.75 760.3 320.05 760.3 277.8
M 687.25 285.85
L 687.25 277.9 682.4 277.9 670.05 277.9 670.05 303.05 664.35 308.75 664.35 344.8 670.05 339.1 670.05 375.1 664.75 381.1 655.65 381.1 650.3 381.1 644.8 375.1 644.8 364.3 639.1 370 639.1 334 644.8 328.3 644.8 277.9 638.2 277.9 627.4 277.9 627.4 380.95 627.4 381.7 627.7 381.4 627.7 382.05 641.75 397.5 655.65 397.5 673.1 397.5 682.4 387.35 687.25 382.05 687.25 346.75 687.25 321.9 681.55 327.55 681.55 291.55 682.4 290.7 687.25 285.85
M 540.5 293.7
L 540.5 277.8 491.35 277.8 491.35 312.3 491.35 338.95 490.4 339.9 484 346.3 484 397.7 501.1 397.7 501.1 348.45 528.6 348.45 528.6 333.6 502.5 333.6 496.85 333.6 508.35 322.1 508.35 299.8 508.35 293.7 540.5 293.7
M 611.7 293.05
L 596.15 277.5 566 277.5 550.35 293.3 550.35 299.8 550.35 325.25 550.35 352 550.35 366.05 550.45 366.05 550.45 372.55 550.45 387.2 561.15 398 596.35 398 611.5 382.85 611.5 364.95 602.85 373.7 602.85 367.7 602.85 340.2 602.85 335.6 611.7 326.95 611.7 293.05
M 574.65 293.3
L 587.2 293.3 593.5 299.7 593.5 299.8 593.5 311.7 593.6 344.8 586.3 352 584.35 353.95 584.4 372.55 584.45 376.95 584.35 376.95 584.35 381.7 565.8 381.7 561.45 377.35 566 372.55 568.35 370.1 568.35 352 568.35 325.25 568.35 299.8 568.35 299.6 574.65 293.3
M 271.65 290.75
L 266.75 276.9 252.3 276.9 252.3 396.8 268.3 396.8 268.3 330.45
Q 268.3 327.8 267.8 324.85 267.4 322 267.3 321.7
L 271.65 334.25 293.35 396.8 298.4 396.8 308.1 396.8 308.1 346.75 308.1 320.05 308.1 276.9 298.4 276.9 292.1 276.9 292.1 342.75
Q 292.2 345.4 292.6 348.35 292.9119140625 350.6505859375 293.05 351.25
L 271.65 290.75
M 341.75 276.6
L 326.1 292.4 326.1 320.05 326.1 346.75 326.1 365.15 326.2 365.15 326.2 386.3 336.9 397.1 372.1 397.1 387.25 381.95 387.25 364.05 378.6 372.8 378.6 346.75 378.6 334.7 387.45 326.05 387.45 320.05 387.45 292.15 371.9 276.6 341.75 276.6
M 350.4 292.4
L 362.95 292.4 369.25 298.8 369.3 320.05 369.35 343.9 366.45 346.75 360.1 353.05 360.2 376.05 360.1 376.05 360.1 380.8 341.55 380.8 337.2 376.45 344.1 369.2 344.1 346.75 344.1 320.05 344.1 298.7 350.4 292.4
M 454.6 292.5
L 454.6 276.7 396.8 276.7 396.8 292.5 416.15 292.5 416.15 320.05 416.15 347.65 411.5 352.2 407.15 356.6 407.25 397.6 416.25 388.65 416.25 396.8 419.5 396.8 434.15 396.8 434.15 370.55 425.4 379.3 425.4 338.5 430.45 333.35 434.65 329.1 434.65 292.5 454.6 292.5
M 539.95 139.3
L 539.95 105.3 509.95 105.3 509.95 151.35 509.95 178.05 509.95 241.9 539.95 241.9 539.95 191.8 532.05 197.25 532.05 178.05 532.05 151.35 532.05 144.6 539.95 139.3
M 656.6 171.15
L 671.5 161.3 671.5 122.7 645.25 104.95 617.95 104.95 594.55 104.95 591.2 107.25 568.2 122.95 568.2 151.35 568.2 178.05 568.2 205.85 568.35 205.85 568.35 229.95 586.35 242.25 645.6 242.25 671.15 224.95 671.15 204.55 656.6 214.55 656.6 171.15
M 617.95 122.95
L 630.2 122.95 640.8 130.25 641 181.6 625.4 192.05 625.55 218.25 625.4 218.25 625.4 223.7 617.95 223.7 594.2 223.7 591.2 221.65 586.85 218.7 591.2 215.65 598.5 210.5 598.5 130.1 609.15 122.95 617.95 122.95
M 379 144.05
L 388.05 138 388.05 163.5 388.05 196.05 388.05 225 388.05 241.9 445.3 241.9 473.55 222.75
Q 473.7 222.3 473.9 221.85
L 473.9 202
Q 473.9 201.1 473.7 200.05 473.7 199.45 473.9 199.55
L 473.9 197.15 482.1 191.45
Q 482.1 185.08984375 482.1 178.05 482.1 175.73671875 482.1 173.35 482.1 163.75 482.1 154.1
L 482.1 149.9 482.1 125 470.1 116.85 453.35 105.55 453.35 105.4 443.4 105.35 425.95 105.35 379 105.3 379 125.55 379 134.75 379 144.05
M 441.35 123.5
L 443.4 124.9 452.8 131.25 452.8 158.35 452.8 210.25 432.45 224.05 416.85 223.8 416.85 204.95 416.85 123.4 425.95 123.4 441.35 123.5
M 345.3 125.55
L 345.3 120.95 354.9 114.45 354.9 105.4 325.95 105.4 325.95 125.55 325.95 134.05 316.35 140.55 316.35 146.1 316.35 172.85 316.35 181.6 325.95 175.1 325.95 198.3 325.95 216.15 317.05 223 292.7 223 283.45 216.15 283.45 203.85 273.9 210.35 273.9 169.3 278.1 166.45 278.45 166.2 283.45 162.8 283.45 161.2 283.45 133.7 283.45 105.4 273.95 105.4 254.2 105.4 254.2 125.15 254.2 223.7 254.7 223.35 254.7 224.05 255.95 225 278.35 241.65 331.1 241.65 353.6 225 354.9 224.05 354.9 198.3 354.9 172.85 354.9 155.5 345.3 162 345.3 146.1 345.3 125.55
M 233.95 105.05
L 207.2 105.05 141.55 105.05 141.55 123.05 174.1 123.05 174.1 151.35 174.1 178.05 174.1 185.9 159 196.1 159 240.95 159.2 242.85 174.25 232.6 174.25 241.9 204.4 241.9 204.4 212 189.65 221.95 189.65 178.05 189.65 175.45 205.25 164.8 205.25 151.35 205.25 123.05 207.2 123.05 233.95 123.05 238.85 123.05 238.85 105.05 233.95 105.05
M 59.4 105.4
L 49.3 105.4
Q 44.2 108.9 39.2 112.15 34.25 115.4 29.3 118.5 27.9 119.55 26.35 120.5
L 26.35 148.3 36.3 141.6 36.3 164.65
Q 37.35 165.5 38.55 166.2 42.65 169.2 46.6 172 50.2 174.4 53.6 176.85 57.05 179.3 60.45 181.6
L 87.35 181.6
Q 90.45 183.45 92.85 184.85 95.2 186.35 97.3 187.65
L 97.3 217.65
Q 96.95 218 96.4 218.35 94.35 219.85 92.5 221.25 90.6 222.75 88.9 224.05
L 88.05 224.05
Q 81.85 224.05 75.7 224.05 69.7 224.05 63.7 224.05 60.6 224.05 57.05 224.05 53.45 224.05 49.65 224.05 45.7 224.05 41.95 224.05 38.35 224.15 34.95 224.25 35.1 229.25 34.95 233.9 34.95 238.05 35.1 242.15
L 89.05 242.15 115.25 224.4 115.25 218.6 115.45 218.5 115.45 210.15 129.85 200.4 129.85 180.1
Q 128.5744140625 179.0646484375 127.25 178.05 125.0134765625 176.3201171875 122.65 174.65 119.05 172.2 115.25 169.75 112.85 168.25 110.65 166.65 108.25 165 105.85 163.4
L 76.9 163.4
Q 74.15 161.65 71.75 160.4 70.551171875 159.637109375 69.4 158.95 68.4328125 158.3732421875 67.5 157.85 67.3 157.7 67.15 157.6
L 67.15 156.7 67.15 132.1 80.3 123.05 86.1 123.05 102.1 123.05 102.4 122.8 102.95 123.05 125.7 123.05 125.7 105.4 86.1 105.4 59.4 105.4 Z"/>
</g>

<g id="Symbol_2_0_Layer0_0_FILL">
<path fill="#000000" stroke="none" d="
M 22.1 65.65
Q 13.7 59.95 9.75 50.65
L -0.05 100.9
Q -2.05 107.2 0.85 112.9 3.4 117.75 8.35 119.9 15.8 122.3 20.9 119.9 26 117.55 29.15 110.25
L 42.1 74.85
Q 42.4021484375 74.10390625 45.1 74.65 46.9212890625 75.0056640625 46.1 74.2 46.8279296875 74.00390625 47.9 73.15
L 46.95 70.9
Q 43.95 71.4 41.1 71.4 30.65 71.4 22.1 65.65
M 177.45 65.75
Q 168.898828125 70.7671875 162.85 71.3 156.8513671875 71.826953125 153.55 70.85
L 152.6 73.6 155.5 74.4
Q 155.9546875 74.1625 156.9 74.45 157.8953125 74.7375 157.85 75.55
L 170.55 109.4
Q 173.1087890625 116.701953125 178.55 118.8 183.9970703125 120.89921875 191.55 119.2 195.9509765625 116.552734375 198.5 112.4 201.0970703125 108.2412109375 200.7 105.8 200.30390625 103.3615234375 199.75 100.5
L 189.9 51.45
Q 186.0501953125 60.794140625 177.45 65.75
M 183.05 73.1
Q 183.3 72.65 183.8 72.55 184.3 72.4 184.7 72.65 185.15 72.95 185.25 73.4
L 192.55 104.1
Q 192.7 104.55 192.4 105 192.15 105.45 191.65 105.55
L 191.4 105.6
Q 190.95 105.6 190.65 105.35 190.25 105.1 190.2 104.65
L 182.9 74
Q 182.75 73.55 183.05 73.1
M 174.85 10
Q 174.2 6.65 171.9 3.8 168.2 -0.65 162.3 -1.25 157.3 -1.75 153.1 1.1 148.95 3.9 147.5 8.7 153.3 7.05 159.25 7.05 167.35 7.05 174.85 10
M 49.3 6.85
Q 47.6 2.95 44 0.8 40.3 -1.4 35.9 -1 30.5 -0.5 26.95 3.75 24.4 6.85 23.95 10.75 30.65 7.5 38.3 6.95
L 49.3 6.85
M 69.7 39.15
Q 69.7 27.55 61.65 19.1 53.65 10.65 42.1 10.05
L 38.7 10.05
Q 26.65 9.8 18.7 18.2 10.7 26.6 10.95 39 11.15 51.4 19.75 60.5 28.3 69.55 35.6 69 42.9 68.35 45.95 68.65 45 66.8 45 65.5 45 56.5 51.4 50.15 57.8 43.75 66.75 43.75 68 43.75 69.8 44.55 69.7 41.5 69.7 39.15
M 189.3 39.2
Q 189.3 26.95 180.6 18.3 171.95 9.6 159.7 9.6 147.4 9.6 138.8 18.3 130.1 26.95 130.1 39.15 130.1 41.3 130.45 43.95 131.55 43.8 133 43.8 142.1 43.8 148.6 50.25 155.05 56.75 155.05 65.85 155.05 67.25 154.9 68.35 157.4 68.8 159.7 68.8 171.95 68.8 180.6 60.1 189.3 51.4 189.3 39.2
M 128.55 44.9
Q 128.1 41.8 128.1 38.95 128.1 30 132.55 22.15 136.85 14.65 144.25 10
L 55.85 10
Q 63.25 14.65 67.55 22.15 72 30 72 38.95 72 41.9 71.45 44.9 77.85 47.2 81.7 52.7 85.7 58.35 85.7 65.25 85.7 70.25 83.4 74.95
L 116.6 74.95
Q 114.3 70.25 114.3 65.25 114.3 58.35 118.35 52.7 122.25 47.2 128.55 44.9
M 52.7 51.4
Q 47.4 56.8 47.4 64.3 47.4 71.8 52.7 77.1 58.05 82.5 65.6 82.5 73.1 82.5 78.4 77.1 83.8 71.8 83.8 64.3 83.8 56.8 78.4 51.4 73.1 46.1 65.6 46.1 58.1 46.1 52.7 51.4
M 152.05 64.3
Q 152.05 57.05 146.85 51.95 141.75 46.8 134.55 46.8 127.35 46.8 122.15 51.95 117.05 57.1 117.05 64.3 117.05 71.55 122.15 76.65 127.25 81.8 134.55 81.8 141.8 81.8 146.85 76.65 152.05 71.6 152.05 64.3 Z"/>
</g>

<g id="Layer0_1_MEMBER_0_MEMBER_1_FILL">
<path fill="#CC0000" stroke="none" d="
M 838.1 -307.4
Q 837.1 -307.4 836.4 -306.65 835.7 -305.9 835.7 -304.9 835.7 -303.95 836.4 -303.2 837.1 -302.5 838.1 -302.5
L 844 -302.5
Q 845 -302.5 845.75 -303.2 846.45 -303.95 846.45 -304.9 846.45 -305.95 845.75 -306.65 845.05 -307.4 844 -307.4
L 838.1 -307.4 Z"/>
</g>

<g id="Layer0_1_MEMBER_0_MEMBER_2_FILL">
<path fill="#CC0000" stroke="none" d="
M 860.55 -306.65
Q 859.85 -305.9 859.85 -304.9 859.85 -303.95 860.55 -303.2 861.3 -302.5 862.3 -302.5
L 868.15 -302.5
Q 869.15 -302.5 869.9 -303.2 870.65 -303.95 870.65 -304.9 870.65 -305.95 869.9 -306.65 869.2 -307.4 868.15 -307.4
L 862.3 -307.4
Q 861.3 -307.4 860.55 -306.65 Z"/>
</g>

<g id="Layer0_1_MEMBER_0_MEMBER_3_FILL">
<path fill="#CC0000" stroke="none" d="
M 845.75 -298
Q 845.05 -298.7 844 -298.7
L 838.1 -298.7
Q 837.1 -298.7 836.4 -298 835.7 -297.25 835.7 -296.25 835.7 -295.25 836.4 -294.5 837.1 -293.8 838.1 -293.8
L 844 -293.8
Q 845 -293.8 845.75 -294.5 846.45 -295.25 846.45 -296.25 846.45 -297.25 845.75 -298 Z"/>
</g>

<g id="Layer0_1_MEMBER_0_MEMBER_4_FILL">
<path fill="#CC0000" stroke="none" d="
M 869.9 -298
Q 869.2 -298.7 868.15 -298.7
L 862.3 -298.7
Q 861.3 -298.7 860.55 -298 859.85 -297.25 859.85 -296.25 859.85 -295.25 860.55 -294.5 861.3 -293.8 862.3 -293.8
L 868.15 -293.8
Q 869.15 -293.8 869.9 -294.5 870.65 -295.25 870.65 -296.25 870.65 -297.25 869.9 -298 Z"/>
</g>

<g id="Layer0_1_MEMBER_0_MEMBER_5_FILL">
<path fill="#CC0000" stroke="none" d="
M 939.4 -261.1
Q 939.3 -261.55 938.85 -261.85 938.45 -262.1 937.95 -261.95 937.45 -261.85 937.2 -261.4 936.9 -260.95 937.05 -260.5
L 944.35 -229.85
Q 944.4 -229.4 944.8 -229.15 945.1 -228.9 945.55 -228.9
L 945.8 -228.95
Q 946.3 -229.05 946.55 -229.5 946.85 -229.95 946.7 -230.4
L 939.4 -261.1 Z"/>
</g>

<g id="Layer0_1_MEMBER_0_MEMBER_6_MEMBER_0_FILL">
<path fill="#CC0000" stroke="none" d="
M 798.85 -304.9
Q 798.85 -306.7 797.6 -308 796.35 -309.25 794.55 -309.25 792.75 -309.25 791.5 -308 790.2 -306.7 790.2 -304.9 790.2 -303.15 791.5 -301.85 792.75 -300.6 794.55 -300.6 796.35 -300.6 797.6 -301.85 798.85 -303.15 798.85 -304.9 Z"/>
</g>

<g id="Layer0_1_MEMBER_0_MEMBER_6_MEMBER_1_FILL">
<path fill="#CC0000" stroke="none" d="
M 798.85 -285.75
Q 798.85 -287.55 797.6 -288.85 796.35 -290.1 794.55 -290.1 792.75 -290.1 791.5 -288.85 790.2 -287.55 790.2 -285.75 790.2 -284 791.5 -282.7 792.75 -281.45 794.55 -281.45 796.35 -281.45 797.6 -282.7 798.85 -284 798.85 -285.75 Z"/>
</g>

<g id="Layer0_1_MEMBER_0_MEMBER_6_MEMBER_2_FILL">
<path fill="#CC0000" stroke="none" d="
M 807.2 -298.4
Q 805.9 -299.7 804.15 -299.7 802.35 -299.7 801.05 -298.4 799.8 -297.1 799.8 -295.35 799.8 -293.55 801.05 -292.3 802.35 -291.05 804.15 -291.05 805.9 -291.05 807.2 -292.3 808.45 -293.55 808.45 -295.35 808.45 -297.1 807.2 -298.4 Z"/>
</g>

<g id="Layer0_1_MEMBER_0_MEMBER_6_MEMBER_3_FILL">
<path fill="#CC0000" stroke="none" d="
M 788.05 -298.4
Q 786.75 -299.7 784.95 -299.7 783.2 -299.7 781.9 -298.4 780.65 -297.1 780.65 -295.35 780.65 -293.55 781.9 -292.3 783.2 -291.05 784.95 -291.05 786.75 -291.05 788.05 -292.3 789.3 -293.55 789.3 -295.35 789.3 -297.1 788.05 -298.4 Z"/>
</g>

<g id="Layer0_1_MEMBER_0_MEMBER_7_FILL">
<path fill="#CC0000" stroke="none" d="
M 913.25 -297.35
L 904.2 -297.35
Q 903.35 -297.35 902.75 -296.75 902.2 -296.15 902.2 -295.35 902.2 -294.5 902.75 -293.9 903.35 -293.35 904.2 -293.35
L 913.25 -293.35 913.25 -284.25
Q 913.25 -283.45 913.85 -282.85 914.45 -282.25 915.3 -282.25 916.1 -282.25 916.7 -282.85 917.3 -283.45 917.3 -284.25
L 917.3 -293.35 926.35 -293.35
Q 927.2 -293.35 927.8 -293.95 928.35 -294.5 928.35 -295.35 928.35 -296.15 927.8 -296.75 927.2 -297.35 926.35 -297.35
L 917.3 -297.35 917.3 -306.45
Q 917.3 -307.25 916.7 -307.9 916.1 -308.45 915.3 -308.45 914.45 -308.45 913.85 -307.9 913.25 -307.25 913.25 -306.45
L 913.25 -297.35 Z"/>
</g>

<g id="Layer0_1_MEMBER_0_MEMBER_8_FILL">
<path fill="#990000" stroke="none" d="
M 930.85 -323.3
Q 930.95 -329.25 927.2 -333.75 925.25 -336.15 922.5 -337.6 919.7 -339.05 916.55 -339.35 913.45 -339.6 910.5 -338.7 907.55 -337.75 905.1 -335.75 901.25 -332.55 899.95 -327.7 899.25 -328.05 898.65 -328.05
L 806.25 -328.05
Q 804.9 -332.6 801.2 -335.75 798.8 -337.75 795.85 -338.7 792.9 -339.6 789.7 -339.35 786.6 -339.05 783.85 -337.6 781.1 -336.15 779.1 -333.75 777.05 -331.3 776.15 -328.35 775.25 -325.4 775.5 -322.25
L 775.55 -322
Q 769.2 -317.45 765.55 -310.6 761.75 -303.45 761.75 -295.4
L 761.8 -294.15
Q 761.55 -293.65 761.45 -293.2
L 750.15 -235.4
Q 749 -231.65 749.3 -227.8 749.65 -223.95 751.4 -220.45 753.25 -216.9 756.25 -214.4 759.2 -211.9 762.95 -210.7 763.3 -210.6 763.8 -210.6 766.75 -209.9 769.6 -209.9 781.7 -209.9 787.6 -223.35
L 799.55 -256 804.55 -256
Q 807.45 -252.95 811.3 -251.2 815.3 -249.4 819.65 -249.4 824.1 -249.4 828.05 -251.2 831.9 -252.95 834.85 -256
L 873.5 -256
Q 876.4 -252.95 880.25 -251.2 884.25 -249.4 888.6 -249.4 893.05 -249.4 897 -251.2 900.85 -252.95 903.75 -256
L 908.75 -256 920.75 -223.2
Q 923.65 -216.6 928.2 -213.25 932.75 -209.9 938.7 -209.9 941.55 -209.9 944.5 -210.6 945 -210.6 945.4 -210.7 949.1 -211.9 952.1 -214.4 955.05 -216.9 956.85 -220.45 958.65 -223.95 959.05 -227.8 959.35 -231.6 958.2 -235.1
L 958.25 -235.1 946.9 -293.2
Q 946.85 -293.65 946.5 -294.15
L 946.55 -295.35
Q 946.55 -304.05 942.25 -311.6 938.05 -318.9 930.85 -323.3
M 916.15 -334.45
Q 920.65 -334 923.45 -330.6 925.25 -328.5 925.75 -325.85 919.9 -328.15 913.8 -328.15 909.5 -328.15 904.8 -326.85 905.9 -330.5 909.1 -332.65 912.3 -334.85 916.15 -334.45
M 894.1 -315.05
Q 902.25 -323.25 913.8 -323.25 925.35 -323.25 933.5 -315.05 941.7 -306.9 941.7 -295.4 941.7 -283.85 933.5 -275.65 925.35 -267.5 913.8 -267.5 911.4 -267.5 909.3 -267.85 909.45 -269.4 909.45 -270.25 909.45 -278.8 903.35 -284.9 897.25 -291 888.65 -291 887.45 -291 886.25 -290.9 885.9 -293.3 885.9 -295.4 885.9 -306.9 894.1 -315.05
M 823.05 -311.5
Q 818.9 -318.75 811.85 -323.15
L 896.55 -323.15
Q 889.45 -318.75 885.3 -311.5 881 -304 881 -295.4 881 -292.6 881.5 -289.7 875.45 -287.5 871.7 -282.25 867.85 -276.8 867.85 -270.2 867.85 -265.4 870.05 -260.9
L 838.25 -260.9
Q 840.45 -265.4 840.45 -270.2 840.45 -276.8 836.6 -282.25 832.9 -287.5 826.8 -289.7 827.3 -292.6 827.3 -295.4 827.3 -304 823.05 -311.5
M 877.4 -281.45
Q 882.1 -286.1 888.65 -286.1 895.2 -286.1 899.85 -281.45 904.55 -276.8 904.55 -270.2 904.55 -263.6 899.85 -259 895.25 -254.3 888.65 -254.3 882.05 -254.3 877.4 -259 872.75 -263.65 872.75 -270.2 872.75 -276.75 877.4 -281.45
M 822.45 -295.4
Q 822.45 -293.2 822.05 -290.85 821.05 -291 819.7 -291 811.1 -291 805 -284.9 798.9 -278.8 798.9 -270.2 798.9 -268.9 799.05 -267.85 796.7 -267.45 794.55 -267.45 783 -267.45 774.85 -275.65 766.65 -283.85 766.65 -295.35 766.65 -306.75 774.3 -314.7 781.85 -322.5 792.9 -323.15
L 796.15 -323.15
Q 807.15 -322.5 814.8 -314.5 822.45 -306.45 822.45 -295.4
M 835.6 -270.2
Q 835.6 -263.65 830.9 -259 826.25 -254.3 819.7 -254.3 813.1 -254.3 808.45 -259 803.8 -263.6 803.8 -270.2 803.8 -276.75 808.45 -281.45 813.15 -286.1 819.7 -286.1 826.25 -286.1 830.9 -281.45 835.6 -276.75 835.6 -270.2
M 932.1 -268.2
Q 940.2 -273.7 943.95 -282.65
L 953.5 -233.95
Q 954.4 -231.15 954.15 -228.25 953.85 -225.3 952.5 -222.7
L 952.55 -222.7
Q 950.1 -217.95 945.3 -215.9 938.1 -213.6 933.25 -215.9 928.35 -218.15 925.35 -225.05
L 912.85 -259.3
Q 912.55 -260.05 911.9 -260.5 911.3 -260.95 910.5 -260.95
L 907.2 -260.95
Q 907.75 -261.95 908.15 -263.1 911.05 -262.6 913.8 -262.6 923.8 -262.6 932.1 -268.2
M 801.05 -328.05
L 792.1 -328
Q 785.85 -327.55 780.4 -324.9 780.75 -328.05 782.85 -330.6 785.7 -334 790.15 -334.45 793.65 -334.8 796.7 -333 799.65 -331.2 801.05 -328.05
M 800.2 -263.1
L 801.1 -260.9 797.85 -260.9
Q 797.05 -260.9 796.4 -260.5 795.8 -260 795.5 -259.3
L 783.05 -225.2
Q 780 -218.15 775.1 -215.9 770.2 -213.6 763 -215.9 758.25 -217.95 755.8 -222.65 753 -228.15 754.9 -234.2
L 764.35 -282.6
Q 768.15 -273.65 776.25 -268.15 784.5 -262.6 794.55 -262.6 797.3 -262.6 800.2 -263.1 Z"/>
</g>

<path id="Layer0_0_1_STROKES" stroke="#9A9A9A" stroke-width="13" stroke-linejoin="miter" stroke-linecap="square" stroke-miterlimit="3" fill="none" d="
M 0 259.05
L 853.5 259.05"/>

<path id="Layer0_1_MEMBER_0_1_STROKES" stroke="#9A9A9A" stroke-width="6" stroke-linejoin="round" stroke-linecap="round" fill="none" d="
M 115.4 288.25
Q 129.6 284.95 132.2 278.1 113.6 280.75 105.85 273.75 105.05 261.8 119.25 259.6"/>
</defs>

<g transform="matrix( 8.113677978515625, 0, 0, 8.113677978515625, 892.45,2564.85) ">
<g transform="matrix( 1, 0, 0, 1, 0,0) ">
<use xlink:href="#Layer0_0_FILL"/>

<use xlink:href="#Layer0_0_1_STROKES"/>
</g>

<g transform="matrix( 1, 0, 0, 1, 0,0) ">
<use xlink:href="#Layer0_1_MEMBER_0_1_STROKES"/>
</g>

<g transform="matrix( 1, 0, 0, 1, 18.4,278) ">
<g transform="matrix( 1, 0, 0, 1, 0,0) ">
<use xlink:href="#Symbol_2_0_Layer0_0_FILL"/>
</g>
</g>

<g transform="matrix( 1, 0, 0, 1, -735.75,612.5) ">
<use xlink:href="#Layer0_1_MEMBER_0_MEMBER_1_FILL"/>
</g>

<g transform="matrix( 1, 0, 0, 1, -735.75,612.5) ">
<use xlink:href="#Layer0_1_MEMBER_0_MEMBER_2_FILL"/>
</g>

<g transform="matrix( 1, 0, 0, 1, -735.75,612.5) ">
<use xlink:href="#Layer0_1_MEMBER_0_MEMBER_3_FILL"/>
</g>

<g transform="matrix( 1, 0, 0, 1, -735.75,612.5) ">
<use xlink:href="#Layer0_1_MEMBER_0_MEMBER_4_FILL"/>
</g>

<g transform="matrix( 1, 0, 0, 1, -735.75,612.5) ">
<use xlink:href="#Layer0_1_MEMBER_0_MEMBER_5_FILL"/>
</g>

<g transform="matrix( 1, 0, 0, 1, -735.75,612.5) ">
<use xlink:href="#Layer0_1_MEMBER_0_MEMBER_6_MEMBER_0_FILL"/>
</g>

<g transform="matrix( 1, 0, 0, 1, -735.75,612.5) ">
<use xlink:href="#Layer0_1_MEMBER_0_MEMBER_6_MEMBER_1_FILL"/>
</g>

<g transform="matrix( 1, 0, 0, 1, -735.75,612.5) ">
<use xlink:href="#Layer0_1_MEMBER_0_MEMBER_6_MEMBER_2_FILL"/>
</g>

<g transform="matrix( 1, 0, 0, 1, -735.75,612.5) ">
<use xlink:href="#Layer0_1_MEMBER_0_MEMBER_6_MEMBER_3_FILL"/>
</g>

<g transform="matrix( 1, 0, 0, 1, -735.75,612.5) ">
<use xlink:href="#Layer0_1_MEMBER_0_MEMBER_7_FILL"/>
</g>

<g transform="matrix( 1, 0, 0, 1, -735.75,612.5) ">
<use xlink:href="#Layer0_1_MEMBER_0_MEMBER_8_FILL"/>
</g>
</g>
</svg>
